Coordinates
version=1
nRows=13
nColumns=36
inDegrees=yes

Units are S.I. units (second, meters, Newtons, ...)
If the header above contains a line with 'inDegrees', this indicates whether rotational values are in degrees (yes) or radians (no).

endheader
time	pelvis_tilt	pelvis_list	pelvis_rotation	pelvis_tx	pelvis_ty	pelvis_tz	hip_flexion_r	hip_adduction_r	hip_rotation_r	knee_angle_r	knee_angle_r_beta	ankle_angle_r	subtalar_angle_r	mtp_angle_r	hip_flexion_l	hip_adduction_l	hip_rotation_l	knee_angle_l	knee_angle_l_beta	ankle_angle_l	subtalar_angle_l	mtp_angle_l	lumbar_extension	lumbar_bending	lumbar_rotation	arm_flex_r	arm_add_r	arm_rot_r	elbow_flex_r	pro_sup_r	arm_flex_l	arm_add_l	arm_rot_l	elbow_flex_l	pro_sup_l
      0.00000000	      8.00704954	     -1.28318821	     -2.33721454	      0.55142056	      1.04522553	      0.72604608	     20.20473934	      0.46982603	      1.81238000	     26.64073795	      0.46496859	      0.03702740	    -12.91151120	     -6.71414986	    -12.57036075	      1.61026422	      0.92871616	      6.06891395	      0.10592253	     14.36787811	     -8.41816949	     -6.71414986	    -26.73158699	     -0.28999271	      2.47628019	      0.74619057	    -14.14193839	     -0.61754965	     33.43259744	     94.74854985	     22.85985778	    -15.83595617	     10.58507256	     33.05750736	     92.75240457
      0.01666670	      8.46045977	     -0.16261798	     -1.69459322	      0.54921123	      1.04253681	      0.72763870	     20.14097483	     -0.87803544	      0.72672922	     22.84413720	      0.39870541	     -0.34172129	     -8.93634963	     -6.83916845	    -13.24816017	      2.77549776	      2.21937251	      7.59833610	      0.13261598	     14.63342069	     -9.81564825	     -6.83916845	    -27.65344152	     -1.66239567	      2.99902298	     -0.54747189	    -13.48258738	     -2.73755487	     34.01313608	     99.18729232	     25.16112694	    -16.09448504	     13.19803332	     33.67220687	     95.91490740
      0.03333330	      7.40230519	      0.54885279	     -1.23262287	      0.54886532	      1.04193551	      0.73094745	     20.72400973	     -1.60105666	      0.67534747	     17.84155650	      0.31139390	     -0.94620287	     -7.75825890	     -6.84091262	    -13.10935195	      3.19200379	      3.56765803	      7.59771331	      0.13260511	     15.40885043	     -9.01558951	     -6.84091262	    -26.67793548	     -2.16738293	      1.97480120	     -0.74392352	    -12.86129061	     -2.36505695	     33.12659818	     99.73473381	     25.41419202	    -17.07460894	     14.39842962	     34.24937458	     95.85960449
      0.05000000	      6.72704975	      0.78259957	     -0.82181105	      0.54906170	      1.04380595	      0.73282741	     21.41468394	     -1.99707743	     -0.11824261	     14.99351335	      0.26168617	      0.48516573	     -5.48735786	     -6.84348759	    -13.20327682	      3.06903317	      3.74541909	      7.84238574	      0.13687545	     16.82126900	     -7.13261458	     -6.84348759	    -25.88752667	     -2.24400278	      1.40652537	     -1.11181730	    -12.62640193	     -2.27146496	     32.88260245	     99.98105799	     25.55548364	    -17.51462032	     15.01166511	     34.46671666	     95.42696441
      0.06666670	      6.04592927	      0.99897409	     -0.79533041	      0.54913753	      1.04681355	      0.73339336	     22.20767926	     -2.27957937	     -0.69812672	     13.22088999	      0.23074806	      1.53666313	     -3.21943904	     -6.92029447	    -13.19296455	      3.03363688	      3.49179521	      8.41847805	      0.14693016	     18.25374765	     -5.67605453	     -6.92029447	    -24.92685416	     -2.42249543	      1.01983702	     -1.16147839	    -12.66464328	     -1.58166326	     32.45557196	     99.07092896	     25.28582572	    -17.78300572	     15.17214046	     34.64926945	     93.99724355
      0.08333330	      5.36247139	      1.09860425	     -0.77237126	      0.54922128	      1.04768932	      0.73360122	     22.96878948	     -2.45196603	     -1.14841617	     12.23772320	      0.21358856	      2.02964544	     -1.80772252	     -6.93722160	    -13.11549847	      2.87119489	      3.24531724	      9.04747356	      0.15790820	     19.18434312	     -4.50994998	     -6.93722160	    -23.99238535	     -2.44897608	      0.99604801	     -1.47568781	    -12.77364947	     -1.77711936	     32.55491720	     98.98407960	     25.21049941	    -17.66305109	     15.19845263	     34.47814534	     93.96033041
      0.10000000	      4.90356618	      0.99344807	     -0.80184489	      0.54959339	      1.04634271	      0.73504460	     23.32211180	     -2.36241944	     -1.55210273	     11.73935771	      0.20489044	      1.95826072	     -0.98579687	     -6.95245096	    -13.31586676	      2.48275186	      2.79924856	      9.57699368	      0.16715007	     19.72951252	     -3.61331290	     -6.95245096	    -23.24169674	     -2.24199311	      1.12670361	     -1.60739219	    -12.97923640	     -1.94062450	     32.59275497	     98.73803879	     25.07358598	    -17.38815970	     15.06415399	     34.22832182	     93.78049046
      0.11666670	      4.68777983	      0.69096282	     -0.87311137	      0.55045987	      1.04392082	      0.73754349	     23.29533927	     -2.00080993	     -1.86707087	     11.94795193	      0.20853110	      1.37711692	     -0.84810671	     -6.96619301	    -13.76830031	      1.87061583	      2.03293552	     10.16594829	      0.17742927	     20.30258021	     -2.56690664	     -6.96619301	    -22.68107266	     -1.82126096	      1.39906095	     -1.50732613	    -13.20415220	     -2.11361178	     32.49308292	     98.58793745	     25.00744496	    -16.89632671	     14.65257425	     33.59128195	     93.64945016
      0.13333330	      4.64986621	      0.20365184	     -1.02366445	      0.55357636	      1.04078102	      0.74045728	     22.98159073	     -1.36694991	     -2.03529200	     12.95974872	      0.22619029	      0.42029769	     -1.23110847	     -7.00568763	    -14.38153455	      1.11269637	      1.22974778	     10.84589477	      0.18929657	     20.65223804	     -1.91169556	     -7.00568763	    -22.12356911	     -1.20319180	      1.77764502	     -1.08777451	    -13.45969695	     -1.61590394	     31.73349639	     96.51872350	     24.74846556	    -16.15766456	     13.77235973	     32.63465225	     91.76497316
      0.15000000	      4.82534681	     -0.51110298	     -1.13587820	      0.56058143	      1.03685873	      0.74401746	     22.27386368	     -0.42263041	     -1.90112771	     14.38910807	      0.25113731	     -1.08395350	     -2.53815393	     -7.01565133	    -15.11793874	      0.12475204	      0.35687927	     11.86298421	      0.20704813	     21.05502716	     -1.13605664	     -7.01565133	    -21.70190855	     -0.24159778	      2.14052657	     -0.81709838	    -13.73062676	     -1.24511385	     31.42726935	     96.18146406	     24.09817421	    -15.48797723	     12.94006395	     31.84430904	     91.69509058
      0.16666670	      4.94747721	     -1.30289066	     -1.26316927	      0.56969901	      1.03297906	      0.74793321	     21.63297225	      0.64598788	     -1.71116139	     16.13940675	      0.28168579	     -2.29309283	     -3.74452263	     -7.11820684	    -15.64578218	     -0.95961184	     -0.59860012	     13.48480038	      0.23535417	     21.20899048	     -0.53967378	     -7.11820684	    -21.06856621	      0.77734684	      2.66460282	     -0.60248902	    -13.96704094	     -0.56946414	     30.75091422	     94.68980633	     23.14000068	    -14.69933316	     12.17693448	     30.86731756	     90.60935392
      0.18333330	      5.01307296	     -2.18773963	     -1.37910026	      0.57640263	      1.03191715	      0.75165302	     21.05017353	      1.85594259	     -1.42467452	     17.86499453	      0.31180298	     -2.90524962	     -4.86827133	     -7.15658813	    -15.91757462	     -2.22912876	     -1.63529008	     15.81642287	      0.27604866	     21.04435604	     -0.15616804	     -7.15658813	    -20.27541071	      1.92643727	      2.96232365	     -0.13071726	    -14.20450286	      0.57635943	     29.63084708	     93.86972891	     21.70002807	    -14.07289146	     11.09935951	     30.05556169	     89.83025551
      0.20000000	      5.04913586	     -3.11896373	     -1.47818255	      0.57899035	      1.03306408	      0.75543321	     20.47802207	      3.11525445	     -1.18999604	     19.41829040	      0.33891310	     -2.82355588	     -5.80472140	     -7.21854739	    -15.86932574	     -3.65528505	     -2.68933039	     18.87795514	      0.32948247	     20.43861307	     -0.11534888	     -7.21854739	    -19.67331281	      3.11313974	      3.40606384	      0.15694154	    -14.51629040	      1.73225218	     29.04318409	     93.07282711	     20.24537333	    -13.40160898	     10.02668089	     29.53104154	     89.56844629
